<?xml version="1.0" encoding="UTF-8"?>
<svg xmlns="http://www.w3.org/2000/svg" xmlns:xlink="http://www.w3.org/1999/xlink" width="355.333" height="358.449" viewBox="0 0 355.333 358.449">
<path fill-rule="nonzero" fill="rgb(0%, 0%, 0%)" fill-opacity="0.01" d="M 345.089844 170.300781 C 345.089844 168.742188 343.828125 167.480469 342.269531 167.480469 C 340.714844 167.480469 339.453125 168.742188 339.453125 170.300781 C 339.453125 171.855469 340.714844 173.117188 342.269531 173.117188 C 343.828125 173.117188 345.089844 171.855469 345.089844 170.300781 Z M 345.089844 170.300781 "/>
<path fill-rule="nonzero" fill="rgb(0%, 0%, 0%)" fill-opacity="0.01999" d="M 305.140625 301.757812 C 305.140625 300.199219 303.878906 298.9375 302.324219 298.9375 C 300.765625 298.9375 299.503906 300.199219 299.503906 301.757812 C 299.503906 303.3125 300.765625 304.574219 302.324219 304.574219 C 303.878906 304.574219 305.140625 303.3125 305.140625 301.757812 Z M 305.140625 301.757812 "/>
<path fill-rule="nonzero" fill="rgb(0%, 0%, 0%)" fill-opacity="0.02998" d="M 181.902344 262.375 C 181.902344 260.820312 180.640625 259.558594 179.082031 259.558594 C 177.527344 259.558594 176.265625 260.820312 176.265625 262.375 C 176.265625 263.933594 177.527344 265.195312 179.082031 265.195312 C 180.640625 265.195312 181.902344 263.933594 181.902344 262.375 Z M 181.902344 262.375 "/>
<path fill-rule="nonzero" fill="rgb(0%, 0%, 0%)" fill-opacity="0.03998" d="M 209.664062 295.523438 C 209.664062 293.96875 208.402344 292.707031 206.847656 292.707031 C 205.289062 292.707031 204.027344 293.96875 204.027344 295.523438 C 204.027344 297.082031 205.289062 298.34375 206.847656 298.34375 C 208.402344 298.34375 209.664062 297.082031 209.664062 295.523438 Z M 209.664062 295.523438 "/>
<path fill-rule="nonzero" fill="rgb(0%, 0%, 0%)" fill-opacity="0.04997" d="M 54.125 280.226562 C 54.125 278.667969 52.863281 277.40625 51.308594 277.40625 C 49.753906 277.40625 48.492188 278.667969 48.492188 280.226562 C 48.492188 281.78125 49.753906 283.042969 51.308594 283.042969 C 52.863281 283.042969 54.125 281.78125 54.125 280.226562 Z M 54.125 280.226562 "/>
<path fill-rule="nonzero" fill="rgb(0%, 0%, 0%)" fill-opacity="0.05997" d="M 63.191406 165.199219 C 63.191406 163.644531 61.929688 162.382812 60.375 162.382812 C 58.816406 162.382812 57.554688 163.644531 57.554688 165.199219 C 57.554688 166.757812 58.816406 168.019531 60.375 168.019531 C 61.929688 168.019531 63.191406 166.757812 63.191406 165.199219 Z M 63.191406 165.199219 "/>
<path fill-rule="nonzero" fill="rgb(0%, 0%, 0%)" fill-opacity="0.06996" d="M 262.929688 150.183594 C 262.929688 148.628906 261.667969 147.367188 260.109375 147.367188 C 258.554688 147.367188 257.292969 148.628906 257.292969 150.183594 C 257.292969 151.742188 258.554688 153.003906 260.109375 153.003906 C 261.667969 153.003906 262.929688 151.742188 262.929688 150.183594 Z M 262.929688 150.183594 "/>
<path fill-rule="nonzero" fill="rgb(0%, 0%, 0%)" fill-opacity="0.07996" d="M 292.109375 345.671875 C 292.109375 344.113281 290.847656 342.851562 289.289062 342.851562 C 287.734375 342.851562 286.472656 344.113281 286.472656 345.671875 C 286.472656 347.226562 287.734375 348.488281 289.289062 348.488281 C 290.847656 348.488281 292.109375 347.226562 292.109375 345.671875 Z M 292.109375 345.671875 "/>
<path fill-rule="nonzero" fill="rgb(0%, 0%, 0%)" fill-opacity="0.08995" d="M 88.40625 202.3125 C 88.40625 200.757812 87.144531 199.496094 85.589844 199.496094 C 84.03125 199.496094 82.769531 200.757812 82.769531 202.3125 C 82.769531 203.871094 84.03125 205.132812 85.589844 205.132812 C 87.144531 205.132812 88.40625 203.871094 88.40625 202.3125 Z M 88.40625 202.3125 "/>
<path fill-rule="nonzero" fill="rgb(0%, 0%, 0%)" fill-opacity="0.09995" d="M 292.957031 219.878906 C 292.957031 218.324219 291.699219 217.0625 290.140625 217.0625 C 288.585938 217.0625 287.324219 218.324219 287.324219 219.878906 C 287.324219 221.4375 288.585938 222.699219 290.140625 222.699219 C 291.699219 222.699219 292.957031 221.4375 292.957031 219.878906 Z M 292.957031 219.878906 "/>
<path fill-rule="nonzero" fill="rgb(0%, 0%, 0%)" fill-opacity="0.10994" d="M 271.425781 202.03125 C 271.425781 200.472656 270.164062 199.210938 268.609375 199.210938 C 267.054688 199.210938 265.792969 200.472656 265.792969 202.03125 C 265.792969 203.585938 267.054688 204.847656 268.609375 204.847656 C 270.164062 204.847656 271.425781 203.585938 271.425781 202.03125 Z M 271.425781 202.03125 "/>
<path fill-rule="nonzero" fill="rgb(0%, 0%, 0%)" fill-opacity="0.11993" d="M 236.011719 26.660156 C 236.011719 25.105469 234.75 23.84375 233.195312 23.84375 C 231.640625 23.84375 230.378906 25.105469 230.378906 26.660156 C 230.378906 28.21875 231.640625 29.480469 233.195312 29.480469 C 234.75 29.480469 236.011719 28.21875 236.011719 26.660156 Z M 236.011719 26.660156 "/>
<path fill-rule="nonzero" fill="rgb(0%, 0%, 0%)" fill-opacity="0.12993" d="M 269.160156 228.945312 C 269.160156 227.390625 267.898438 226.128906 266.34375 226.128906 C 264.785156 226.128906 263.523438 227.390625 263.523438 228.945312 C 263.523438 230.503906 264.785156 231.765625 266.34375 231.765625 C 267.898438 231.765625 269.160156 230.503906 269.160156 228.945312 Z M 269.160156 228.945312 "/>
<path fill-rule="nonzero" fill="rgb(0%, 0%, 0%)" fill-opacity="0.13992" d="M 63.476562 59.808594 C 63.476562 58.25 62.214844 56.988281 60.65625 56.988281 C 59.101562 56.988281 57.839844 58.25 57.839844 59.808594 C 57.839844 61.363281 59.101562 62.625 60.65625 62.625 C 62.214844 62.625 63.476562 61.363281 63.476562 59.808594 Z M 63.476562 59.808594 "/>
<path fill-rule="nonzero" fill="rgb(0%, 0%, 0%)" fill-opacity="0.14992" d="M 85.859375 49.609375 C 85.859375 48.050781 84.597656 46.789062 83.039062 46.789062 C 81.484375 46.789062 80.222656 48.050781 80.222656 49.609375 C 80.222656 51.164062 81.484375 52.425781 83.039062 52.425781 C 84.597656 52.425781 85.859375 51.164062 85.859375 49.609375 Z M 85.859375 49.609375 "/>
<path fill-rule="nonzero" fill="rgb(0%, 0%, 0%)" fill-opacity="0.15991" d="M 245.644531 248.496094 C 245.644531 246.9375 244.382812 245.675781 242.828125 245.675781 C 241.269531 245.675781 240.007812 246.9375 240.007812 248.496094 C 240.007812 250.050781 241.269531 251.3125 242.828125 251.3125 C 244.382812 251.3125 245.644531 250.050781 245.644531 248.496094 Z M 245.644531 248.496094 "/>
<path fill-rule="nonzero" fill="rgb(0%, 0%, 0%)" fill-opacity="0.1699" d="M 90.390625 245.660156 C 90.390625 244.105469 89.128906 242.84375 87.574219 242.84375 C 86.015625 242.84375 84.753906 244.105469 84.753906 245.660156 C 84.753906 247.21875 86.015625 248.480469 87.574219 248.480469 C 89.128906 248.480469 90.390625 247.21875 90.390625 245.660156 Z M 90.390625 245.660156 "/>
<path fill-rule="nonzero" fill="rgb(0%, 0%, 0%)" fill-opacity="0.1799" d="M 22.679688 68.589844 C 22.679688 67.035156 21.417969 65.773438 19.859375 65.773438 C 18.304688 65.773438 17.042969 67.035156 17.042969 68.589844 C 17.042969 70.148438 18.304688 71.410156 19.859375 71.410156 C 21.417969 71.410156 22.679688 70.148438 22.679688 68.589844 Z M 22.679688 68.589844 "/>
<path fill-rule="nonzero" fill="rgb(0%, 0%, 0%)" fill-opacity="0.1899" d="M 128.355469 312.238281 C 128.355469 310.683594 127.09375 309.421875 125.535156 309.421875 C 123.980469 309.421875 122.71875 310.683594 122.71875 312.238281 C 122.71875 313.796875 123.980469 315.058594 125.535156 315.058594 C 127.09375 315.058594 128.355469 313.796875 128.355469 312.238281 Z M 128.355469 312.238281 "/>
<path fill-rule="nonzero" fill="rgb(0%, 0%, 0%)" fill-opacity="0.19989" d="M 121.839844 288.15625 C 121.839844 286.601562 120.578125 285.339844 119.019531 285.339844 C 117.464844 285.339844 116.203125 286.601562 116.203125 288.15625 C 116.203125 289.714844 117.464844 290.976562 119.019531 290.976562 C 120.578125 290.976562 121.839844 289.714844 121.839844 288.15625 Z M 121.839844 288.15625 "/>
<path fill-rule="nonzero" fill="rgb(0%, 0%, 0%)" fill-opacity="0.20988" d="M 186.71875 257.277344 C 186.71875 255.71875 185.457031 254.457031 183.898438 254.457031 C 182.34375 254.457031 181.082031 255.71875 181.082031 257.277344 C 181.082031 258.832031 182.34375 260.09375 183.898438 260.09375 C 185.457031 260.09375 186.71875 258.832031 186.71875 257.277344 Z M 186.71875 257.277344 "/>
<path fill-rule="nonzero" fill="rgb(0%, 0%, 0%)" fill-opacity="0.21988" d="M 93.507812 304.589844 C 93.507812 303.035156 92.246094 301.773438 90.6875 301.773438 C 89.132812 301.773438 87.871094 303.035156 87.871094 304.589844 C 87.871094 306.144531 89.132812 307.40625 90.6875 307.40625 C 92.246094 307.40625 93.507812 306.144531 93.507812 304.589844 Z M 93.507812 304.589844 "/>
<path fill-rule="nonzero" fill="rgb(0%, 0%, 0%)" fill-opacity="0.22987" d="M 213.632812 130.351562 C 213.632812 128.796875 212.371094 127.535156 210.8125 127.535156 C 209.257812 127.535156 207.996094 128.796875 207.996094 130.351562 C 207.996094 131.910156 209.257812 133.171875 210.8125 133.171875 C 212.371094 133.171875 213.632812 131.910156 213.632812 130.351562 Z M 213.632812 130.351562 "/>
<path fill-rule="nonzero" fill="rgb(0%, 0%, 0%)" fill-opacity="0.23987" d="M 310.242188 22.976562 C 310.242188 21.421875 308.980469 20.160156 307.421875 20.160156 C 305.867188 20.160156 304.605469 21.421875 304.605469 22.976562 C 304.605469 24.535156 305.867188 25.796875 307.421875 25.796875 C 308.980469 25.796875 310.242188 24.535156 310.242188 22.976562 Z M 310.242188 22.976562 "/>
<path fill-rule="nonzero" fill="rgb(0%, 0%, 0%)" fill-opacity="0.24986" d="M 317.324219 281.925781 C 317.324219 280.367188 316.0625 279.105469 314.503906 279.105469 C 312.949219 279.105469 311.6875 280.367188 311.6875 281.925781 C 311.6875 283.480469 312.949219 284.742188 314.503906 284.742188 C 316.0625 284.742188 317.324219 283.480469 317.324219 281.925781 Z M 317.324219 281.925781 "/>
<path fill-rule="nonzero" fill="rgb(0%, 0%, 0%)" fill-opacity="0.25986" d="M 235.730469 181.914062 C 235.730469 180.359375 234.46875 179.097656 232.910156 179.097656 C 231.355469 179.097656 230.09375 180.359375 230.09375 181.914062 C 230.09375 183.472656 231.355469 184.734375 232.910156 184.734375 C 234.46875 184.734375 235.730469 183.472656 235.730469 181.914062 Z M 235.730469 181.914062 "/>
<path fill-rule="nonzero" fill="rgb(0%, 0%, 0%)" fill-opacity="0.26985" d="M 345.371094 292.972656 C 345.371094 291.417969 344.109375 290.15625 342.554688 290.15625 C 340.996094 290.15625 339.734375 291.417969 339.734375 292.972656 C 339.734375 294.53125 340.996094 295.792969 342.554688 295.792969 C 344.109375 295.792969 345.371094 294.53125 345.371094 292.972656 Z M 345.371094 292.972656 "/>
<path fill-rule="nonzero" fill="rgb(0%, 0%, 0%)" fill-opacity="0.27985" d="M 117.871094 231.210938 C 117.871094 229.65625 116.609375 228.394531 115.054688 228.394531 C 113.496094 228.394531 112.234375 229.65625 112.234375 231.210938 C 112.234375 232.769531 113.496094 234.03125 115.054688 234.03125 C 116.609375 234.03125 117.871094 232.769531 117.871094 231.210938 Z M 117.871094 231.210938 "/>
<path fill-rule="nonzero" fill="rgb(0%, 0%, 0%)" fill-opacity="0.28984" d="M 61.777344 137.4375 C 61.777344 135.878906 60.515625 134.617188 58.957031 134.617188 C 57.402344 134.617188 56.140625 135.878906 56.140625 137.4375 C 56.140625 138.992188 57.402344 140.253906 58.957031 140.253906 C 60.515625 140.253906 61.777344 138.992188 61.777344 137.4375 Z M 61.777344 137.4375 "/>
<path fill-rule="nonzero" fill="rgb(0%, 0%, 0%)" fill-opacity="0.29984" d="M 280.777344 242.261719 C 280.777344 240.703125 279.515625 239.441406 277.957031 239.441406 C 276.402344 239.441406 275.140625 240.703125 275.140625 242.261719 C 275.140625 243.816406 276.402344 245.078125 277.957031 245.078125 C 279.515625 245.078125 280.777344 243.816406 280.777344 242.261719 Z M 280.777344 242.261719 "/>
<path fill-rule="nonzero" fill="rgb(0%, 0%, 0%)" fill-opacity="0.30983" d="M 167.453125 298.074219 C 167.453125 296.515625 166.191406 295.253906 164.632812 295.253906 C 163.078125 295.253906 161.816406 296.515625 161.816406 298.074219 C 161.816406 299.628906 163.078125 300.890625 164.632812 300.890625 C 166.191406 300.890625 167.453125 299.628906 167.453125 298.074219 Z M 167.453125 298.074219 "/>
<path fill-rule="nonzero" fill="rgb(0%, 0%, 0%)" fill-opacity="0.31982" d="M 249.046875 21.277344 C 249.046875 19.722656 247.785156 18.460938 246.226562 18.460938 C 244.671875 18.460938 243.410156 19.722656 243.410156 21.277344 C 243.410156 22.835938 244.671875 24.097656 246.226562 24.097656 C 247.785156 24.097656 249.046875 22.835938 249.046875 21.277344 Z M 249.046875 21.277344 "/>
<path fill-rule="nonzero" fill="rgb(0%, 0%, 0%)" fill-opacity="0.32982" d="M 146.488281 91.253906 C 146.488281 89.699219 145.226562 88.4375 143.667969 88.4375 C 142.113281 88.4375 140.851562 89.699219 140.851562 91.253906 C 140.851562 92.8125 142.113281 94.074219 143.667969 94.074219 C 145.226562 94.074219 146.488281 92.8125 146.488281 91.253906 Z M 146.488281 91.253906 "/>
<path fill-rule="nonzero" fill="rgb(0%, 0%, 0%)" fill-opacity="0.33981" d="M 234.3125 235.460938 C 234.3125 233.90625 233.050781 232.644531 231.496094 232.644531 C 229.9375 232.644531 228.675781 233.90625 228.675781 235.460938 C 228.675781 237.019531 229.9375 238.28125 231.496094 238.28125 C 233.050781 238.28125 234.3125 237.019531 234.3125 235.460938 Z M 234.3125 235.460938 "/>
<path fill-rule="nonzero" fill="rgb(0%, 0%, 0%)" fill-opacity="0.34981" d="M 185.582031 193.816406 C 185.582031 192.257812 184.320312 190.996094 182.765625 190.996094 C 181.210938 190.996094 179.949219 192.257812 179.949219 193.816406 C 179.949219 195.371094 181.210938 196.632812 182.765625 196.632812 C 184.320312 196.632812 185.582031 195.371094 185.582031 193.816406 Z M 185.582031 193.816406 "/>
<path fill-rule="nonzero" fill="rgb(0%, 0%, 0%)" fill-opacity="0.3598" d="M 152.152344 12.777344 C 152.152344 11.222656 150.890625 9.960938 149.335938 9.960938 C 147.777344 9.960938 146.515625 11.222656 146.515625 12.777344 C 146.515625 14.335938 147.777344 15.597656 149.335938 15.597656 C 150.890625 15.597656 152.152344 14.335938 152.152344 12.777344 Z M 152.152344 12.777344 "/>
<path fill-rule="nonzero" fill="rgb(0%, 0%, 0%)" fill-opacity="0.3698" d="M 15.597656 265.210938 C 15.597656 263.652344 14.335938 262.390625 12.777344 262.390625 C 11.222656 262.390625 9.960938 263.652344 9.960938 265.210938 C 9.960938 266.765625 11.222656 268.027344 12.777344 268.027344 C 14.335938 268.027344 15.597656 266.765625 15.597656 265.210938 Z M 15.597656 265.210938 "/>
<path fill-rule="nonzero" fill="rgb(0%, 0%, 0%)" fill-opacity="0.37979" d="M 124.671875 165.765625 C 124.671875 164.210938 123.410156 162.949219 121.851562 162.949219 C 120.296875 162.949219 119.035156 164.210938 119.035156 165.765625 C 119.035156 167.324219 120.296875 168.585938 121.851562 168.585938 C 123.410156 168.585938 124.671875 167.324219 124.671875 165.765625 Z M 124.671875 165.765625 "/>
<path fill-rule="nonzero" fill="rgb(0%, 0%, 0%)" fill-opacity="0.38979" d="M 80.757812 259.542969 C 80.757812 257.988281 79.496094 256.726562 77.941406 256.726562 C 76.382812 256.726562 75.121094 257.988281 75.121094 259.542969 C 75.121094 261.101562 76.382812 262.363281 77.941406 262.363281 C 79.496094 262.363281 80.757812 261.101562 80.757812 259.542969 Z M 80.757812 259.542969 "/>
<path fill-rule="nonzero" fill="rgb(0%, 0%, 0%)" fill-opacity="0.39978" d="M 338.855469 295.523438 C 338.855469 293.96875 337.59375 292.707031 336.039062 292.707031 C 334.480469 292.707031 333.21875 293.96875 333.21875 295.523438 C 333.21875 297.082031 334.480469 298.34375 336.039062 298.34375 C 337.59375 298.34375 338.855469 297.082031 338.855469 295.523438 Z M 338.855469 295.523438 "/>
<path fill-rule="nonzero" fill="rgb(0%, 0%, 0%)" fill-opacity="0.40977" d="M 39.960938 87.855469 C 39.960938 86.300781 38.699219 85.039062 37.144531 85.039062 C 35.585938 85.039062 34.324219 86.300781 34.324219 87.855469 C 34.324219 89.414062 35.585938 90.675781 37.144531 90.675781 C 38.699219 90.675781 39.960938 89.414062 39.960938 87.855469 Z M 39.960938 87.855469 "/>
<path fill-rule="nonzero" fill="rgb(0%, 0%, 0%)" fill-opacity="0.41977" d="M 61.210938 15.042969 C 61.210938 13.488281 59.949219 12.226562 58.390625 12.226562 C 56.835938 12.226562 55.574219 13.488281 55.574219 15.042969 C 55.574219 16.601562 56.835938 17.863281 58.390625 17.863281 C 59.949219 17.863281 61.210938 16.601562 61.210938 15.042969 Z M 61.210938 15.042969 "/>
<path fill-rule="nonzero" fill="rgb(0%, 0%, 0%)" fill-opacity="0.42976" d="M 120.136719 120.71875 C 120.136719 119.164062 118.875 117.902344 117.320312 117.902344 C 115.765625 117.902344 114.503906 119.164062 114.503906 120.71875 C 114.503906 122.277344 115.765625 123.539062 117.320312 123.539062 C 118.875 123.539062 120.136719 122.277344 120.136719 120.71875 Z M 120.136719 120.71875 "/>
<path fill-rule="nonzero" fill="rgb(0%, 0%, 0%)" fill-opacity="0.43976" d="M 325.257812 268.324219 C 325.257812 266.769531 323.996094 265.507812 322.4375 265.507812 C 320.882812 265.507812 319.621094 266.769531 319.621094 268.324219 C 319.621094 269.882812 320.882812 271.144531 322.4375 271.144531 C 323.996094 271.144531 325.257812 269.882812 325.257812 268.324219 Z M 325.257812 268.324219 "/>
<path fill-rule="nonzero" fill="rgb(0%, 0%, 0%)" fill-opacity="0.44975" d="M 167.453125 264.644531 C 167.453125 263.085938 166.191406 261.824219 164.632812 261.824219 C 163.078125 261.824219 161.816406 263.085938 161.816406 264.644531 C 161.816406 266.199219 163.078125 267.460938 164.632812 267.460938 C 166.191406 267.460938 167.453125 266.199219 167.453125 264.644531 Z M 167.453125 264.644531 "/>
<path fill-rule="nonzero" fill="rgb(0%, 0%, 0%)" fill-opacity="0.45975" d="M 143.9375 22.128906 C 143.9375 20.570312 142.675781 19.308594 141.117188 19.308594 C 139.5625 19.308594 138.300781 20.570312 138.300781 22.128906 C 138.300781 23.683594 139.5625 24.945312 141.117188 24.945312 C 142.675781 24.945312 143.9375 23.683594 143.9375 22.128906 Z M 143.9375 22.128906 "/>
<path fill-rule="nonzero" fill="rgb(0%, 0%, 0%)" fill-opacity="0.46974" d="M 126.65625 157.550781 C 126.65625 155.996094 125.394531 154.734375 123.835938 154.734375 C 122.28125 154.734375 121.019531 155.996094 121.019531 157.550781 C 121.019531 159.105469 122.28125 160.367188 123.835938 160.367188 C 125.394531 160.367188 126.65625 159.105469 126.65625 157.550781 Z M 126.65625 157.550781 "/>
<path fill-rule="nonzero" fill="rgb(0%, 0%, 0%)" fill-opacity="0.47974" d="M 335.738281 331.503906 C 335.738281 329.949219 334.476562 328.6875 332.921875 328.6875 C 331.363281 328.6875 330.101562 329.949219 330.101562 331.503906 C 330.101562 333.0625 331.363281 334.324219 332.921875 334.324219 C 334.476562 334.324219 335.738281 333.0625 335.738281 331.503906 Z M 335.738281 331.503906 "/>
<path fill-rule="nonzero" fill="rgb(0%, 0%, 0%)" fill-opacity="0.48973" d="M 62.34375 174.265625 C 62.34375 172.710938 61.082031 171.449219 59.523438 171.449219 C 57.96875 171.449219 56.707031 172.710938 56.707031 174.265625 C 56.707031 175.824219 57.96875 177.085938 59.523438 177.085938 C 61.082031 177.085938 62.34375 175.824219 62.34375 174.265625 Z M 62.34375 174.265625 "/>
<path fill-rule="nonzero" fill="rgb(0%, 0%, 0%)" fill-opacity="0.49973" d="M 322.988281 145.652344 C 322.988281 144.09375 321.726562 142.832031 320.171875 142.832031 C 318.617188 142.832031 317.355469 144.09375 317.355469 145.652344 C 317.355469 147.207031 318.617188 148.46875 320.171875 148.46875 C 321.726562 148.46875 322.988281 147.207031 322.988281 145.652344 Z M 322.988281 145.652344 "/>
<path fill="none" stroke-width="0.3985" stroke-linecap="butt" stroke-linejoin="miter" stroke="rgb(0%, 0%, 0%)" stroke-opacity="0.01" stroke-miterlimit="10" d="M 159.758813 10.461313 L 141.6885 30.617563 " transform="matrix(1, 0, 0, -1, 180.499, 178.516)"/>
<path fill="none" stroke-width="0.3985" stroke-linecap="butt" stroke-linejoin="miter" stroke="rgb(0%, 0%, 0%)" stroke-opacity="0.01999" stroke-miterlimit="10" d="M 120.965844 -126.132437 L 109.649438 -164.261344 " transform="matrix(1, 0, 0, -1, 180.499, 178.516)"/>
<path fill="none" stroke-width="0.3985" stroke-linecap="butt" stroke-linejoin="miter" stroke="rgb(0%, 0%, 0%)" stroke-opacity="0.01999" stroke-miterlimit="10" d="M 123.403344 -120.6715 L 132.426781 -105.980094 " transform="matrix(1, 0, 0, -1, 180.499, 178.516)"/>
<path fill="none" stroke-width="0.3985" stroke-linecap="butt" stroke-linejoin="miter" stroke="rgb(0%, 0%, 0%)" stroke-opacity="0.01999" stroke-miterlimit="10" d="M 124.770531 -122.597281 L 159.106469 -115.101187 " transform="matrix(1, 0, 0, -1, 180.499, 178.516)"/>
<path fill="none" stroke-width="0.3985" stroke-linecap="butt" stroke-linejoin="miter" stroke="rgb(0%, 0%, 0%)" stroke-opacity="0.01999" stroke-miterlimit="10" d="M 124.790063 -122.691031 L 152.571313 -117.558219 " transform="matrix(1, 0, 0, -1, 180.499, 178.516)"/>
<path fill="none" stroke-width="0.3985" stroke-linecap="butt" stroke-linejoin="miter" stroke="rgb(0%, 0%, 0%)" stroke-opacity="0.01999" stroke-miterlimit="10" d="M 123.379906 -120.655875 L 140.383813 -92.394156 " transform="matrix(1, 0, 0, -1, 180.499, 178.516)"/>
<path fill="none" stroke-width="0.3985" stroke-linecap="butt" stroke-linejoin="miter" stroke="rgb(0%, 0%, 0%)" stroke-opacity="0.01999" stroke-miterlimit="10" d="M 123.989281 -125.343375 L 150.258813 -150.886344 " transform="matrix(1, 0, 0, -1, 180.499, 178.516)"/>
<path fill="none" stroke-width="0.3985" stroke-linecap="butt" stroke-linejoin="miter" stroke="rgb(0%, 0%, 0%)" stroke-opacity="0.02998" stroke-miterlimit="10" d="M 0.520531 -86.1715 L 24.411156 -114.694937 " transform="matrix(1, 0, 0, -1, 180.499, 178.516)"/>
<path fill="none" stroke-width="0.3985" stroke-linecap="butt" stroke-linejoin="miter" stroke="rgb(0%, 0%, 0%)" stroke-opacity="0.02998" stroke-miterlimit="10" d="M 0.653344 -81.667594 L 1.329125 -80.95275 " transform="matrix(1, 0, 0, -1, 180.499, 178.516)"/>
<path fill="none" stroke-width="0.3985" stroke-linecap="butt" stroke-linejoin="miter" stroke="rgb(0%, 0%, 0%)" stroke-opacity="0.02998" stroke-miterlimit="10" d="M -2.549781 -86.655875 L -14.733375 -116.761344 " transform="matrix(1, 0, 0, -1, 180.499, 178.516)"/>
<path fill="none" stroke-width="0.3985" stroke-linecap="butt" stroke-linejoin="miter" stroke="rgb(0%, 0%, 0%)" stroke-opacity="0.02998" stroke-miterlimit="10" d="M 1.266625 -82.484 L 48.3135 -58.323844 " transform="matrix(1, 0, 0, -1, 180.499, 178.516)"/>
<path fill="none" stroke-width="0.3985" stroke-linecap="butt" stroke-linejoin="miter" stroke="rgb(0%, 0%, 0%)" stroke-opacity="0.02998" stroke-miterlimit="10" d="M -4.397437 -84.32775 L -12.885719 -85.659781 " transform="matrix(1, 0, 0, -1, 180.499, 178.516)"/>
<path fill="none" stroke-width="0.3985" stroke-linecap="butt" stroke-linejoin="miter" stroke="rgb(0%, 0%, 0%)" stroke-opacity="0.03998" stroke-miterlimit="10" d="M 28.180688 -114.612906 L 60.497094 -72.374625 " transform="matrix(1, 0, 0, -1, 180.499, 178.516)"/>
<path fill="none" stroke-width="0.3985" stroke-linecap="butt" stroke-linejoin="miter" stroke="rgb(0%, 0%, 0%)" stroke-opacity="0.03998" stroke-miterlimit="10" d="M 24.793969 -114.4215 L 4.950219 -81.347281 " transform="matrix(1, 0, 0, -1, 180.499, 178.516)"/>
<path fill="none" stroke-width="0.3985" stroke-linecap="butt" stroke-linejoin="miter" stroke="rgb(0%, 0%, 0%)" stroke-opacity="0.03998" stroke-miterlimit="10" d="M 23.336938 -117.191031 L -12.854469 -119.374625 " transform="matrix(1, 0, 0, -1, 180.499, 178.516)"/>
<path fill="none" stroke-width="0.3985" stroke-linecap="butt" stroke-linejoin="miter" stroke="rgb(0%, 0%, 0%)" stroke-opacity="0.03998" stroke-miterlimit="10" d="M 23.911156 -115.226187 L -13.428687 -87.909781 " transform="matrix(1, 0, 0, -1, 180.499, 178.516)"/>
<path fill="none" stroke-width="0.3985" stroke-linecap="butt" stroke-linejoin="miter" stroke="rgb(0%, 0%, 0%)" stroke-opacity="0.04997" stroke-miterlimit="10" d="M -127.006812 -99.628531 L -95.112281 -69.226187 " transform="matrix(1, 0, 0, -1, 180.499, 178.516)"/>
<path fill="none" stroke-width="0.3985" stroke-linecap="butt" stroke-linejoin="miter" stroke="rgb(0%, 0%, 0%)" stroke-opacity="0.04997" stroke-miterlimit="10" d="M -126.624 -103.2965 L -92.374 -124.487906 " transform="matrix(1, 0, 0, -1, 180.499, 178.516)"/>
<path fill="none" stroke-width="0.3985" stroke-linecap="butt" stroke-linejoin="miter" stroke="rgb(0%, 0%, 0%)" stroke-opacity="0.04997" stroke-miterlimit="10" d="M -132.002906 -100.612906 L -164.909156 -87.788687 " transform="matrix(1, 0, 0, -1, 180.499, 178.516)"/>
<path fill="none" stroke-width="0.3985" stroke-linecap="butt" stroke-linejoin="miter" stroke="rgb(0%, 0%, 0%)" stroke-opacity="0.04997" stroke-miterlimit="10" d="M -126.807594 -99.859 L -104.940406 -82.878531 " transform="matrix(1, 0, 0, -1, 180.499, 178.516)"/>
<path fill="none" stroke-width="0.3985" stroke-linecap="butt" stroke-linejoin="miter" stroke="rgb(0%, 0%, 0%)" stroke-opacity="0.05997" stroke-miterlimit="10" d="M -118.428687 10.820688 L -96.604469 -21.304312 " transform="matrix(1, 0, 0, -1, 180.499, 178.516)"/>
<path fill="none" stroke-width="0.3985" stroke-linecap="butt" stroke-linejoin="miter" stroke="rgb(0%, 0%, 0%)" stroke-opacity="0.05997" stroke-miterlimit="10" d="M -120.276344 16.3285 L -121.385719 38.066781 " transform="matrix(1, 0, 0, -1, 180.499, 178.516)"/>
<path fill="none" stroke-width="0.3985" stroke-linecap="butt" stroke-linejoin="miter" stroke="rgb(0%, 0%, 0%)" stroke-opacity="0.05997" stroke-miterlimit="10" d="M -120.40525 10.312875 L -120.694312 7.254281 " transform="matrix(1, 0, 0, -1, 180.499, 178.516)"/>
<path fill="none" stroke-width="0.3985" stroke-linecap="butt" stroke-linejoin="miter" stroke="rgb(0%, 0%, 0%)" stroke-opacity="0.06996" stroke-miterlimit="10" d="M 80.098656 25.351938 L 87.622094 -20.538687 " transform="matrix(1, 0, 0, -1, 180.499, 178.516)"/>
<path fill="none" stroke-width="0.3985" stroke-linecap="butt" stroke-linejoin="miter" stroke="rgb(0%, 0%, 0%)" stroke-opacity="0.06996" stroke-miterlimit="10" d="M 76.809594 29.457406 L 33.114281 47.035531 " transform="matrix(1, 0, 0, -1, 180.499, 178.516)"/>
<path fill="none" stroke-width="0.3985" stroke-linecap="butt" stroke-linejoin="miter" stroke="rgb(0%, 0%, 0%)" stroke-opacity="0.06996" stroke-miterlimit="10" d="M 77.645531 26.039438 L 54.376 -1.109 " transform="matrix(1, 0, 0, -1, 180.499, 178.516)"/>
<path fill="none" stroke-width="0.3985" stroke-linecap="butt" stroke-linejoin="miter" stroke="rgb(0%, 0%, 0%)" stroke-opacity="0.07996" stroke-miterlimit="10" d="M 111.661156 -166.222281 L 149.551781 -153.9215 " transform="matrix(1, 0, 0, -1, 180.499, 178.516)"/>
<path fill="none" stroke-width="0.3985" stroke-linecap="butt" stroke-linejoin="miter" stroke="rgb(0%, 0%, 0%)" stroke-opacity="0.08995" stroke-miterlimit="10" d="M -94.772437 -26.812125 L -93.065406 -64.132437 " transform="matrix(1, 0, 0, -1, 180.499, 178.516)"/>
<path fill="none" stroke-width="0.3985" stroke-linecap="butt" stroke-linejoin="miter" stroke="rgb(0%, 0%, 0%)" stroke-opacity="0.08995" stroke-miterlimit="10" d="M -92.756812 -25.909781 L -67.600562 -50.581656 " transform="matrix(1, 0, 0, -1, 180.499, 178.516)"/>
<path fill="none" stroke-width="0.3985" stroke-linecap="butt" stroke-linejoin="miter" stroke="rgb(0%, 0%, 0%)" stroke-opacity="0.08995" stroke-miterlimit="10" d="M -92.784156 -21.655875 L -60.772437 10.605844 " transform="matrix(1, 0, 0, -1, 180.499, 178.516)"/>
<path fill="none" stroke-width="0.3985" stroke-linecap="butt" stroke-linejoin="miter" stroke="rgb(0%, 0%, 0%)" stroke-opacity="0.08995" stroke-miterlimit="10" d="M -95.307594 -26.788687 L -102.159156 -78.038687 " transform="matrix(1, 0, 0, -1, 180.499, 178.516)"/>
<path fill="none" stroke-width="0.3985" stroke-linecap="butt" stroke-linejoin="miter" stroke="rgb(0%, 0%, 0%)" stroke-opacity="0.08995" stroke-miterlimit="10" d="M -92.948219 -21.503531 L -58.624 18.67225 " transform="matrix(1, 0, 0, -1, 180.499, 178.516)"/>
<path fill="none" stroke-width="0.3985" stroke-linecap="butt" stroke-linejoin="miter" stroke="rgb(0%, 0%, 0%)" stroke-opacity="0.08995" stroke-miterlimit="10" d="M -96.963844 -21.589469 L -118.920875 2.039438 " transform="matrix(1, 0, 0, -1, 180.499, 178.516)"/>
<path fill="none" stroke-width="0.3985" stroke-linecap="butt" stroke-linejoin="miter" stroke="rgb(0%, 0%, 0%)" stroke-opacity="0.09995" stroke-miterlimit="10" d="M 107.317406 -39.437125 L 90.434594 -25.441031 " transform="matrix(1, 0, 0, -1, 180.499, 178.516)"/>
<path fill="none" stroke-width="0.3985" stroke-linecap="butt" stroke-linejoin="miter" stroke="rgb(0%, 0%, 0%)" stroke-opacity="0.09995" stroke-miterlimit="10" d="M 106.821313 -42.437125 L 88.665063 -49.355094 " transform="matrix(1, 0, 0, -1, 180.499, 178.516)"/>
<path fill="none" stroke-width="0.3985" stroke-linecap="butt" stroke-linejoin="miter" stroke="rgb(0%, 0%, 0%)" stroke-opacity="0.09995" stroke-miterlimit="10" d="M 107.059594 -42.925406 L 64.911156 -68.417594 " transform="matrix(1, 0, 0, -1, 180.499, 178.516)"/>
<path fill="none" stroke-width="0.3985" stroke-linecap="butt" stroke-linejoin="miter" stroke="rgb(0%, 0%, 0%)" stroke-opacity="0.09995" stroke-miterlimit="10" d="M 108.200219 -44.01525 L 98.903344 -61.093375 " transform="matrix(1, 0, 0, -1, 180.499, 178.516)"/>
<path fill="none" stroke-width="0.3985" stroke-linecap="butt" stroke-linejoin="miter" stroke="rgb(0%, 0%, 0%)" stroke-opacity="0.09995" stroke-miterlimit="10" d="M 111.317406 -43.874625 L 140.266625 -87.300406 " transform="matrix(1, 0, 0, -1, 180.499, 178.516)"/>
<path fill="none" stroke-width="0.3985" stroke-linecap="butt" stroke-linejoin="miter" stroke="rgb(0%, 0%, 0%)" stroke-opacity="0.10994" stroke-miterlimit="10" d="M 87.856469 -26.523062 L 86.098656 -47.4215 " transform="matrix(1, 0, 0, -1, 180.499, 178.516)"/>
<path fill="none" stroke-width="0.3985" stroke-linecap="butt" stroke-linejoin="miter" stroke="rgb(0%, 0%, 0%)" stroke-opacity="0.10994" stroke-miterlimit="10" d="M 86.645531 -26.151969 L 63.793969 -67.339469 " transform="matrix(1, 0, 0, -1, 180.499, 178.516)"/>
<path fill="none" stroke-width="0.3985" stroke-linecap="butt" stroke-linejoin="miter" stroke="rgb(0%, 0%, 0%)" stroke-opacity="0.10994" stroke-miterlimit="10" d="M 85.481469 -22.034781 L 55.040063 -4.882437 " transform="matrix(1, 0, 0, -1, 180.499, 178.516)"/>
<path fill="none" stroke-width="0.3985" stroke-linecap="butt" stroke-linejoin="miter" stroke="rgb(0%, 0%, 0%)" stroke-opacity="0.10994" stroke-miterlimit="10" d="M 88.793969 -26.45275 L 96.778344 -60.808219 " transform="matrix(1, 0, 0, -1, 180.499, 178.516)"/>
<path fill="none" stroke-width="0.3985" stroke-linecap="butt" stroke-linejoin="miter" stroke="rgb(0%, 0%, 0%)" stroke-opacity="0.10994" stroke-miterlimit="10" d="M 85.868188 -25.534781 L 53.239281 -54.925406 " transform="matrix(1, 0, 0, -1, 180.499, 178.516)"/>
<path fill="none" stroke-width="0.3985" stroke-linecap="butt" stroke-linejoin="miter" stroke="rgb(0%, 0%, 0%)" stroke-opacity="0.11993" stroke-miterlimit="10" d="M 55.485375 153.008188 L 62.9385 156.086313 " transform="matrix(1, 0, 0, -1, 180.499, 178.516)"/>
<path fill="none" stroke-width="0.3985" stroke-linecap="butt" stroke-linejoin="miter" stroke="rgb(0%, 0%, 0%)" stroke-opacity="0.12993" stroke-miterlimit="10" d="M 83.524438 -52.359 L 64.649438 -68.050406 " transform="matrix(1, 0, 0, -1, 180.499, 178.516)"/>
<path fill="none" stroke-width="0.3985" stroke-linecap="butt" stroke-linejoin="miter" stroke="rgb(0%, 0%, 0%)" stroke-opacity="0.12993" stroke-miterlimit="10" d="M 84.09475 -47.972281 L 54.161156 -5.859 " transform="matrix(1, 0, 0, -1, 180.499, 178.516)"/>
<path fill="none" stroke-width="0.3985" stroke-linecap="butt" stroke-linejoin="miter" stroke="rgb(0%, 0%, 0%)" stroke-opacity="0.12993" stroke-miterlimit="10" d="M 87.825219 -52.70275 L 95.477563 -61.472281 " transform="matrix(1, 0, 0, -1, 180.499, 178.516)"/>
<path fill="none" stroke-width="0.3985" stroke-linecap="butt" stroke-linejoin="miter" stroke="rgb(0%, 0%, 0%)" stroke-opacity="0.12993" stroke-miterlimit="10" d="M 82.876 -50.984 L 53.961938 -56.39025 " transform="matrix(1, 0, 0, -1, 180.499, 178.516)"/>
<path fill="none" stroke-width="0.3985" stroke-linecap="butt" stroke-linejoin="miter" stroke="rgb(0%, 0%, 0%)" stroke-opacity="0.13992" stroke-miterlimit="10" d="M -117.096656 119.957406 L -100.206031 127.656625 " transform="matrix(1, 0, 0, -1, 180.499, 178.516)"/>
<path fill="none" stroke-width="0.3985" stroke-linecap="butt" stroke-linejoin="miter" stroke="rgb(0%, 0%, 0%)" stroke-opacity="0.13992" stroke-miterlimit="10" d="M -122.791969 118.074594 L -157.690406 110.558969 " transform="matrix(1, 0, 0, -1, 180.499, 178.516)"/>
<path fill="none" stroke-width="0.3985" stroke-linecap="butt" stroke-linejoin="miter" stroke="rgb(0%, 0%, 0%)" stroke-opacity="0.13992" stroke-miterlimit="10" d="M -121.78025 116.394906 L -141.416969 92.973031 " transform="matrix(1, 0, 0, -1, 180.499, 178.516)"/>
<path fill="none" stroke-width="0.3985" stroke-linecap="butt" stroke-linejoin="miter" stroke="rgb(0%, 0%, 0%)" stroke-opacity="0.13992" stroke-miterlimit="10" d="M -119.995094 121.723031 L -121.956031 160.457406 " transform="matrix(1, 0, 0, -1, 180.499, 178.516)"/>
<path fill="none" stroke-width="0.3985" stroke-linecap="butt" stroke-linejoin="miter" stroke="rgb(0%, 0%, 0%)" stroke-opacity="0.14992" stroke-miterlimit="10" d="M -99.776344 126.976938 L -141.038062 92.590219 " transform="matrix(1, 0, 0, -1, 180.499, 178.516)"/>
<path fill="none" stroke-width="0.3985" stroke-linecap="butt" stroke-linejoin="miter" stroke="rgb(0%, 0%, 0%)" stroke-opacity="0.14992" stroke-miterlimit="10" d="M -99.209937 131.363656 L -120.354469 161.016 " transform="matrix(1, 0, 0, -1, 180.499, 178.516)"/>
<path fill="none" stroke-width="0.3985" stroke-linecap="butt" stroke-linejoin="miter" stroke="rgb(0%, 0%, 0%)" stroke-opacity="0.15991" stroke-miterlimit="10" d="M 59.34475 -70.4215 L 6.383813 -78.316031 " transform="matrix(1, 0, 0, -1, 180.499, 178.516)"/>
<path fill="none" stroke-width="0.3985" stroke-linecap="butt" stroke-linejoin="miter" stroke="rgb(0%, 0%, 0%)" stroke-opacity="0.15991" stroke-miterlimit="10" d="M 65.297875 -69.45275 L 94.489281 -64.273062 " transform="matrix(1, 0, 0, -1, 180.499, 178.516)"/>
<path fill="none" stroke-width="0.3985" stroke-linecap="butt" stroke-linejoin="miter" stroke="rgb(0%, 0%, 0%)" stroke-opacity="0.15991" stroke-miterlimit="10" d="M 60.348656 -67.70275 L 52.977563 -59.222281 " transform="matrix(1, 0, 0, -1, 180.499, 178.516)"/>
<path fill="none" stroke-width="0.3985" stroke-linecap="butt" stroke-linejoin="miter" stroke="rgb(0%, 0%, 0%)" stroke-opacity="0.1699" stroke-miterlimit="10" d="M -91.131812 -69.569937 L -63.272437 -107.218375 " transform="matrix(1, 0, 0, -1, 180.499, 178.516)"/>
<path fill="none" stroke-width="0.3985" stroke-linecap="butt" stroke-linejoin="miter" stroke="rgb(0%, 0%, 0%)" stroke-opacity="0.1699" stroke-miterlimit="10" d="M -92.768531 -70.159781 L -89.96775 -123.062125 " transform="matrix(1, 0, 0, -1, 180.499, 178.516)"/>
<path fill="none" stroke-width="0.3985" stroke-linecap="butt" stroke-linejoin="miter" stroke="rgb(0%, 0%, 0%)" stroke-opacity="0.1699" stroke-miterlimit="10" d="M -90.256812 -65.741812 L -68.116187 -54.101187 " transform="matrix(1, 0, 0, -1, 180.499, 178.516)"/>
<path fill="none" stroke-width="0.3985" stroke-linecap="butt" stroke-linejoin="miter" stroke="rgb(0%, 0%, 0%)" stroke-opacity="0.1699" stroke-miterlimit="10" d="M -94.647437 -69.624625 L -100.838844 -78.5465 " transform="matrix(1, 0, 0, -1, 180.499, 178.516)"/>
<path fill="none" stroke-width="0.3985" stroke-linecap="butt" stroke-linejoin="miter" stroke="rgb(0%, 0%, 0%)" stroke-opacity="0.1799" stroke-miterlimit="10" d="M -158.624 107.680063 L -145.370094 92.906625 " transform="matrix(1, 0, 0, -1, 180.499, 178.516)"/>
<path fill="none" stroke-width="0.3985" stroke-linecap="butt" stroke-linejoin="miter" stroke="rgb(0%, 0%, 0%)" stroke-opacity="0.1899" stroke-miterlimit="10" d="M -55.749 -130.812125 L -60.690406 -112.554312 " transform="matrix(1, 0, 0, -1, 180.499, 178.516)"/>
<path fill="none" stroke-width="0.3985" stroke-linecap="butt" stroke-linejoin="miter" stroke="rgb(0%, 0%, 0%)" stroke-opacity="0.1899" stroke-miterlimit="10" d="M -57.909156 -133.07775 L -86.862281 -126.722281 " transform="matrix(1, 0, 0, -1, 180.499, 178.516)"/>
<path fill="none" stroke-width="0.3985" stroke-linecap="butt" stroke-linejoin="miter" stroke="rgb(0%, 0%, 0%)" stroke-opacity="0.1899" stroke-miterlimit="10" d="M -52.124 -132.694937 L -18.702125 -120.585562 " transform="matrix(1, 0, 0, -1, 180.499, 178.516)"/>
<path fill="none" stroke-width="0.3985" stroke-linecap="butt" stroke-linejoin="miter" stroke="rgb(0%, 0%, 0%)" stroke-opacity="0.19989" stroke-miterlimit="10" d="M -64.088844 -111.155875 L -87.198219 -124.562125 " transform="matrix(1, 0, 0, -1, 180.499, 178.516)"/>
<path fill="none" stroke-width="0.3985" stroke-linecap="butt" stroke-linejoin="miter" stroke="rgb(0%, 0%, 0%)" stroke-opacity="0.19989" stroke-miterlimit="10" d="M -61.6865 -106.632437 L -65.237281 -55.706656 " transform="matrix(1, 0, 0, -1, 180.499, 178.516)"/>
<path fill="none" stroke-width="0.3985" stroke-linecap="butt" stroke-linejoin="miter" stroke="rgb(0%, 0%, 0%)" stroke-opacity="0.19989" stroke-miterlimit="10" d="M -58.53025 -110.280875 L -18.815406 -118.917594 " transform="matrix(1, 0, 0, -1, 180.499, 178.516)"/>
<path fill="none" stroke-width="0.3985" stroke-linecap="butt" stroke-linejoin="miter" stroke="rgb(0%, 0%, 0%)" stroke-opacity="0.19989" stroke-miterlimit="10" d="M -63.956031 -107.917594 L -100.084937 -82.753531 " transform="matrix(1, 0, 0, -1, 180.499, 178.516)"/>
<path fill="none" stroke-width="0.3985" stroke-linecap="butt" stroke-linejoin="miter" stroke="rgb(0%, 0%, 0%)" stroke-opacity="0.19989" stroke-miterlimit="10" d="M -58.795875 -108.257437 L -18.545875 -87.511344 " transform="matrix(1, 0, 0, -1, 180.499, 178.516)"/>
<path fill="none" stroke-width="0.3985" stroke-linecap="butt" stroke-linejoin="miter" stroke="rgb(0%, 0%, 0%)" stroke-opacity="0.20988" stroke-miterlimit="10" d="M 2.110375 -81.487906 L -14.577125 -116.82775 " transform="matrix(1, 0, 0, -1, 180.499, 178.516)"/>
<path fill="none" stroke-width="0.3985" stroke-linecap="butt" stroke-linejoin="miter" stroke="rgb(0%, 0%, 0%)" stroke-opacity="0.20988" stroke-miterlimit="10" d="M 6.141625 -77.503531 L 48.254906 -58.20275 " transform="matrix(1, 0, 0, -1, 180.499, 178.516)"/>
<path fill="none" stroke-width="0.3985" stroke-linecap="butt" stroke-linejoin="miter" stroke="rgb(0%, 0%, 0%)" stroke-opacity="0.20988" stroke-miterlimit="10" d="M 0.583031 -79.839469 L -13.045875 -85.050406 " transform="matrix(1, 0, 0, -1, 180.499, 178.516)"/>
<path fill="none" stroke-width="0.3985" stroke-linecap="butt" stroke-linejoin="miter" stroke="rgb(0%, 0%, 0%)" stroke-opacity="0.21988" stroke-miterlimit="10" d="M -90.631812 -123.1715 L -101.737281 -83.929312 " transform="matrix(1, 0, 0, -1, 180.499, 178.516)"/>
<path fill="none" stroke-width="0.3985" stroke-linecap="butt" stroke-linejoin="miter" stroke="rgb(0%, 0%, 0%)" stroke-opacity="0.22987" stroke-miterlimit="10" d="M 31.501 45.391 L 51.223656 -0.624625 " transform="matrix(1, 0, 0, -1, 180.499, 178.516)"/>
<path fill="none" stroke-width="0.3985" stroke-linecap="butt" stroke-linejoin="miter" stroke="rgb(0%, 0%, 0%)" stroke-opacity="0.24986" stroke-miterlimit="10" d="M 136.8135 -104.51525 L 159.247094 -113.351187 " transform="matrix(1, 0, 0, -1, 180.499, 178.516)"/>
<path fill="none" stroke-width="0.3985" stroke-linecap="butt" stroke-linejoin="miter" stroke="rgb(0%, 0%, 0%)" stroke-opacity="0.24986" stroke-miterlimit="10" d="M 131.961938 -101.191031 L 99.504906 -65.964469 " transform="matrix(1, 0, 0, -1, 180.499, 178.516)"/>
<path fill="none" stroke-width="0.3985" stroke-linecap="butt" stroke-linejoin="miter" stroke="rgb(0%, 0%, 0%)" stroke-opacity="0.24986" stroke-miterlimit="10" d="M 136.559594 -105.019156 L 152.989281 -115.398062 " transform="matrix(1, 0, 0, -1, 180.499, 178.516)"/>
<path fill="none" stroke-width="0.3985" stroke-linecap="butt" stroke-linejoin="miter" stroke="rgb(0%, 0%, 0%)" stroke-opacity="0.24986" stroke-miterlimit="10" d="M 135.528344 -100.804312 L 140.418969 -92.417594 " transform="matrix(1, 0, 0, -1, 180.499, 178.516)"/>
<path fill="none" stroke-width="0.3985" stroke-linecap="butt" stroke-linejoin="miter" stroke="rgb(0%, 0%, 0%)" stroke-opacity="0.24986" stroke-miterlimit="10" d="M 135.055688 -106.237906 L 151.372094 -150.159781 " transform="matrix(1, 0, 0, -1, 180.499, 178.516)"/>
<path fill="none" stroke-width="0.3985" stroke-linecap="butt" stroke-linejoin="miter" stroke="rgb(0%, 0%, 0%)" stroke-opacity="0.25986" stroke-miterlimit="10" d="M 52.333031 -6.417594 L 51.075219 -53.929312 " transform="matrix(1, 0, 0, -1, 180.499, 178.516)"/>
<path fill="none" stroke-width="0.3985" stroke-linecap="butt" stroke-linejoin="miter" stroke="rgb(0%, 0%, 0%)" stroke-opacity="0.25986" stroke-miterlimit="10" d="M 49.477563 -4.097281 L 5.200219 -14.601187 " transform="matrix(1, 0, 0, -1, 180.499, 178.516)"/>
<path fill="none" stroke-width="0.3985" stroke-linecap="butt" stroke-linejoin="miter" stroke="rgb(0%, 0%, 0%)" stroke-opacity="0.26985" stroke-miterlimit="10" d="M 159.243188 -115.558219 L 158.348656 -115.909781 " transform="matrix(1, 0, 0, -1, 180.499, 178.516)"/>
<path fill="none" stroke-width="0.3985" stroke-linecap="butt" stroke-linejoin="miter" stroke="rgb(0%, 0%, 0%)" stroke-opacity="0.26985" stroke-miterlimit="10" d="M 160.145531 -112.120719 L 143.848656 -92.148062 " transform="matrix(1, 0, 0, -1, 180.499, 178.516)"/>
<path fill="none" stroke-width="0.3985" stroke-linecap="butt" stroke-linejoin="miter" stroke="rgb(0%, 0%, 0%)" stroke-opacity="0.26985" stroke-miterlimit="10" d="M 161.321313 -117.386344 L 153.15725 -150.062125 " transform="matrix(1, 0, 0, -1, 180.499, 178.516)"/>
<path fill="none" stroke-width="0.3985" stroke-linecap="butt" stroke-linejoin="miter" stroke="rgb(0%, 0%, 0%)" stroke-opacity="0.27985" stroke-miterlimit="10" d="M -67.84275 -54.526969 L -100.159156 -79.194937 " transform="matrix(1, 0, 0, -1, 180.499, 178.516)"/>
<path fill="none" stroke-width="0.3985" stroke-linecap="butt" stroke-linejoin="miter" stroke="rgb(0%, 0%, 0%)" stroke-opacity="0.27985" stroke-miterlimit="10" d="M -62.944312 -54.382437 L -18.366187 -84.441031 " transform="matrix(1, 0, 0, -1, 180.499, 178.516)"/>
<path fill="none" stroke-width="0.3985" stroke-linecap="butt" stroke-linejoin="miter" stroke="rgb(0%, 0%, 0%)" stroke-opacity="0.28984" stroke-miterlimit="10" d="M -122.756812 43.840219 L -142.139625 87.898813 " transform="matrix(1, 0, 0, -1, 180.499, 178.516)"/>
<path fill="none" stroke-width="0.3985" stroke-linecap="butt" stroke-linejoin="miter" stroke="rgb(0%, 0%, 0%)" stroke-opacity="0.28984" stroke-miterlimit="10" d="M -121.495094 38.062875 L -121.022437 7.266 " transform="matrix(1, 0, 0, -1, 180.499, 178.516)"/>
<path fill="none" stroke-width="0.3985" stroke-linecap="butt" stroke-linejoin="miter" stroke="rgb(0%, 0%, 0%)" stroke-opacity="0.29984" stroke-miterlimit="10" d="M 94.473656 -63.308219 L 53.981469 -57.382437 " transform="matrix(1, 0, 0, -1, 180.499, 178.516)"/>
<path fill="none" stroke-width="0.3985" stroke-linecap="butt" stroke-linejoin="miter" stroke="rgb(0%, 0%, 0%)" stroke-opacity="0.29984" stroke-miterlimit="10" d="M 100.0635 -65.269156 L 139.336938 -88.284781 " transform="matrix(1, 0, 0, -1, 180.499, 178.516)"/>
<path fill="none" stroke-width="0.3985" stroke-linecap="butt" stroke-linejoin="miter" stroke="rgb(0%, 0%, 0%)" stroke-opacity="0.30983" stroke-miterlimit="10" d="M -15.866187 -116.538687 L -15.866187 -89.144156 " transform="matrix(1, 0, 0, -1, 180.499, 178.516)"/>
<path fill="none" stroke-width="0.3985" stroke-linecap="butt" stroke-linejoin="miter" stroke="rgb(0%, 0%, 0%)" stroke-opacity="0.32982" stroke-miterlimit="10" d="M -38.84275 85.012094 L -61.166969 60.043344 " transform="matrix(1, 0, 0, -1, 180.499, 178.516)"/>
<path fill="none" stroke-width="0.3985" stroke-linecap="butt" stroke-linejoin="miter" stroke="rgb(0%, 0%, 0%)" stroke-opacity="0.3598" stroke-miterlimit="10" d="M -33.15525 163.473031 L -37.389625 158.656625 " transform="matrix(1, 0, 0, -1, 180.499, 178.516)"/>
<path fill="none" stroke-width="0.3985" stroke-linecap="butt" stroke-linejoin="miter" stroke="rgb(0%, 0%, 0%)" stroke-opacity="0.37979" stroke-miterlimit="10" d="M -58.948219 15.750375 L -62.877906 54.793344 " transform="matrix(1, 0, 0, -1, 180.499, 178.516)"/>
<path fill="none" stroke-width="0.3985" stroke-linecap="butt" stroke-linejoin="miter" stroke="rgb(0%, 0%, 0%)" stroke-opacity="0.37979" stroke-miterlimit="10" d="M -57.9365 15.680063 L -57.370094 18.031625 " transform="matrix(1, 0, 0, -1, 180.499, 178.516)"/>
<path fill="none" stroke-width="0.3985" stroke-linecap="butt" stroke-linejoin="miter" stroke="rgb(0%, 0%, 0%)" stroke-opacity="0.39978" stroke-miterlimit="10" d="M 154.1885 -114.308219 L 143.290063 -92.507437 " transform="matrix(1, 0, 0, -1, 180.499, 178.516)"/>
<path fill="none" stroke-width="0.3985" stroke-linecap="butt" stroke-linejoin="miter" stroke="rgb(0%, 0%, 0%)" stroke-opacity="0.39978" stroke-miterlimit="10" d="M 155.278344 -120.01525 L 152.680688 -149.984 " transform="matrix(1, 0, 0, -1, 180.499, 178.516)"/>
<path fill="none" stroke-width="0.3985" stroke-linecap="butt" stroke-linejoin="miter" stroke="rgb(0%, 0%, 0%)" stroke-opacity="0.42976" stroke-miterlimit="10" d="M -62.651344 54.824594 L -57.1865 23.937875 " transform="matrix(1, 0, 0, -1, 180.499, 178.516)"/>
</svg>
